<svg version="1.1" id="layer_01" xmlns="http://www.w3.org/2000/svg" xmlns:xlink="http://www.w3.org/1999/xlink" x="0px" y="0px" viewBox="0 0 413.4 43.9" style="enable-background:new 0 0 413.4 43.9;" xml:space="preserve">
			<g>
				<g>
					<path class="st0" d="M251.9,18v-3.2h14.4V18h-5.6v15.3h-3.3V18H251.9z"></path>
					<path class="st0" d="M288.5,24c0,4.8-2.8,9.7-9,9.7c-6.2,0-9-4.7-9-9.5c0-4.8,3-9.7,9-9.7C285.5,14.5,288.5,19.3,288.5,24z
						 M273.8,24.1c0,3.1,1.5,6.4,5.8,6.4c4.2,0,5.7-3.4,5.7-6.4c0-3.1-1.7-6.4-5.7-6.4C275.5,17.6,273.8,21,273.8,24.1z"></path>
					<path class="st0" d="M300.2,23.8l8.4,9.3v0.2h-4.1l-7.3-8.2v8.2h-3.3V14.9h3.3v7.8l6.7-7.8h4.1V15L300.2,23.8z"></path>
					<path class="st0" d="M323.8,14.9h4V15l-7,10.7v7.6h-3.3v-7.6L310.8,15v-0.2h3.9l4.5,7.6L323.8,14.9z"></path>
					<path class="st0" d="M348,24c0,4.8-2.8,9.7-9,9.7c-6.2,0-9-4.7-9-9.5c0-4.8,3-9.7,9-9.7C345,14.5,348,19.3,348,24z M333.2,24.1
						c0,3.1,1.5,6.4,5.8,6.4c4.2,0,5.7-3.4,5.7-6.4c0-3.1-1.7-6.4-5.7-6.4C334.9,17.6,333.2,21,333.2,24.1z"></path>
					<path class="st0" d="M369.4,14.9l5.4,16.8l5.4-16.8h1.4l-6.2,18.5H374l-2.8-8.6l-2.2-7.3l-2.2,7.2l-2.8,8.7h-1.4l-6.1-18.5h1.4
						l5.4,16.8l5.4-16.8H369.4z"></path>
					<path class="st0" d="M383.5,26.8c0-3.9,2.8-6.7,6.3-6.7c3.2,0,6.2,1.9,6.2,6.3c0,0.3,0,0.7-0.1,1h-11.1c0.2,3.1,2.5,4.8,5,4.8
						c1.6,0,3.5-0.7,4.5-2l0.9,0.7c-1.2,1.7-3.4,2.5-5.3,2.5C386.3,33.5,383.5,30.9,383.5,26.8z M389.8,21.3c-2.6,0-4.8,1.8-5,5h10
						C394.8,23,392.8,21.3,389.8,21.3z"></path>
					<path class="st0" d="M401.8,23.1c1-2.1,3-3.1,5.1-3.1c3.5,0,6.2,2.4,6.2,6.7c0,4.3-2.7,6.7-6.2,6.7c-2.1,0-4.1-1.1-5.2-3.1v2.9
						h-1.2V14.9h1.2V23.1z M401.8,26.8c0,3.2,2.2,5.5,5.1,5.5c2.8,0,5.1-1.8,5.1-5.4c0-3.7-2.3-5.5-5.1-5.5
						C404,21.3,401.8,23.5,401.8,26.8z"></path>
				</g>
				<g>
					<path class="st0" d="M55.4,33.8c-3.3,1-4.3,2-8,0.3c-3.7-1.8-8.1-5.1-9.2-5.8c-0.5-0.3-1-0.8-1.5-1.2c1.4,0,2.9,0.1,4.3,0.3l2.7,1
						l3.7-2.5l-0.6-1.3l-0.5-5.4l2.8-2.7l-4.4-3.3l-2.4,1c0,0-3.7-1.3-9.2-1.4l0-2.1c2.2,0.1,5.1,0.3,6.6,0.5c2.5,0.3,4.3,1.1,4.3,1.1
						c2.7,0.8,4.9-0.8,4.9-0.8l4.4-7.1l-0.8,0.4c0,0-3,1.5-4.9,2.2c-1.9,0.6-3.9,1.3-4.6,1.3c-0.6,0-2.3-0.3-5.2-0.9
						c-1-0.2-2.6-0.3-4.5-0.3l0.1-0.6l1-2c0,0,1-0.4-0.3-1.6C32.8,1.5,30.6,0,30.6,0l-1.5,0.6l-1.9,1.9l-1.1,1.3l1.5,1l0,2.4
						c-2.7,0.1-5.3,0.4-7.5,0.7c-5.6,0.8-6.7-1.8-6.7-1.8s-0.6,1.1-0.9,1.5C12.3,8,10.4,9.3,9.6,9.8c-0.8,0.5-1,1.4-1,1.4
						s0.4,0.9,2,2.7c1.6,1.8,4.1-0.4,5.1-1.3c1-0.9,3.7-1.1,5.8-1.8c1.3-0.4,4.1-0.4,6.1-0.3l0,2.5c-5.3,0.5-8,1.2-8,1.2l-2-1.3
						l-5.2,5.2l1.8,1.4l0.1,0.4c0,0,0.4,3.5,0.2,4.3c-0.2,0.6-0.1,0.6,0,0.6L14.2,26l2.8,3.2c0,0,0.3,0,1.5-0.4
						c1.3-0.4,2.3-0.8,2.3-0.8s0.7-0.1,1.9-0.2c-1.3,1.8-3.9,5-6.7,5.9c-3.8,1.3-6.7,1.4-9.6-0.9C3.4,30.5,0,27.9,0,27.9
						s6.2,9.9,10.1,11.6c3.9,1.8,3.5,2.4,7.1-0.9c3.5-3.3,5.4-4.9,7.5-7.7c1.2-1.6,2-2.8,2.4-3.6c0.3,0,0.5,0,0.8-0.1l0.1,5.9l-0.3,8.6
						c0,0,1,2.8,2.8,0.6c1.8-2.2,3.2-3.9,3.2-3.9s0.4-0.6-0.1-2.3C33,34.6,33,28.5,33,28.5l0-1.1c1.4,1.6,5.7,6.1,9,8.2
						c4.1,2.5,5.9,4.1,6.8,4.4c0.9,0.4,2,3.7,6.7-1.6c4.7-5.3,5.4-6.7,5.4-6.7S58.7,32.8,55.4,33.8z M40.1,24l-7.4,0.1l0-2.6
						C36,21.7,40,22,40,22L40.1,24z M40.2,17.6c1,1-0.4-0.1-0.4-0.1v1h-7.2l0-2.4C35.6,16.3,39.5,16.8,40.2,17.6z M20.3,17.1
						c0,0,4.2-0.6,7.2-0.9l0,2.3l-7.1,0.4L20.3,17.1z M20.3,24.3l0.1-2.3c0,0,4.2-0.3,7.2-0.5l0,2.7L20.3,24.3z"></path>
					<g>
						<path class="st0" d="M64.9,14.6c0,0,0,1.4,2.7,0.3c2.7-1.1,11.8-4.9,18.4-5c6.6-0.1,11.9,0.3,13.8,0.6c1.9,0.3,7.6,1.9,9.6,2.8
							l0.3,0.1l7.8-8.7c0,0-2.4,1.2-5.4,2c-3,0.9-4.5,1.4-8.9,0.9c-2.7-0.3-7.2-0.9-11.8-1c0.1-0.3,0.4-1.2,1.3-1.6
							c1.1-0.5,0.3-1.5,0.3-1.5s-1.3-1.2-2.8-2.1c-1.5-1-1.5-1.1-3-0.4c-1.5,0.7-4,2.8-4,2.8l2.4,1.5l-0.1,1.3c-1.1,0.1-2.1,0.2-3,0.3
							c-6.5,1.1-9.3,1.1-10.9,1.4c-1.6,0.3-2.3,0.4-3.2-0.2C67.6,7.5,66.8,7,66.8,7s0.5,1.8-0.4,2.8s-0.6,1.1-1.2,1.5
							c-0.6,0.5-1.4,0.6-0.8,2.1L64.9,14.6z"></path>
						<path class="st0" d="M98.7,25l1.2,1c0,0,1.4-0.3,1.9-0.7c0.6-0.4,1.5-1.5,1.5-1.5l0.1-4.1l2.9-1.5l-3.6-4.1l-2.7,1.2
							c0,0,0.5-0.2-4.8-0.6c-5.3-0.4-10.7-0.3-12.3-0.3c-1.5,0-4-0.1-4-0.1s-3.6,3-4,3.6c-0.4,0.6-0.4,0.6-0.4,0.6v1.2l1.5,0.8v2.5
							l-1.2,1.5c0,0-0.2,0.2,1.4,1.5c1.5,1.3,1.9,2.4,3.4,1.4c1.5-1.1,2.4-1.6,3.8-1.8l3.5-0.1l-0.2,15.5c0,0,0.4,1.2,1,1.7
							c0.6,0.6,1.2,1.1,2.1-0.1c1-1.2,2.5-3.7,2.5-3.7L91.8,25H98.7z M89.2,21.2c-1.8-0.1-8.1,0.6-8.1,0.6v-3.6c0,0,4.2-0.8,8.2-1
							c4.1-0.2,8.7,1.2,8.7,1.2v2.9C97.6,21.1,91.1,21.3,89.2,21.2z"></path>
						<path class="st0" d="M67.4,33c-2.8-0.3-5.4-0.8-5.4-0.8s4.5,1.8,5.6,2.6c1.2,0.8,2.3,1.4,3.3,2.2c1,0.9,0.9,2.2,3.8,0.6
							c2.9-1.6,7.4-4,7.4-4s0.6-0.7,1-2.3c0.4-1.6,0.5-1.8,0.5-1.8l1.5-3.4c0,0-4.7,4-8.5,5.3C72.8,32.8,70.3,33.3,67.4,33z"></path>
						<path class="st0" d="M114.3,31.9c-2.5,1-5.3,1.4-7.9,0.1c-2.6-1.3-6-3.1-7.5-3.9c-1.5-0.8-5-2.6-5-2.6s4.2,6,7.3,8.4
							c3.1,2.4,5.3,3.8,6,4.3c0.7,0.5,2.1,1.9,4.4,0.1c2.2-1.8,5.4-5.6,5.4-5.6l2.7-3.3C119.6,29.3,116.8,30.9,114.3,31.9z"></path>
					</g>
					<g>
						<path class="st0" d="M138.7,7c1.3-0.3,3.6-0.6,4.9-0.6c1.4,0,4.7,0.3,4.7,0.3l3.2-2.5l-2-1.6l-9.9,0.1l-1.1-0.5l-1.4-0.6L133.7,5
							c0,0,0.9,0.9,1.7,1.5C136.4,7.3,137.4,7.3,138.7,7z"></path>
						<path class="st0" d="M144.9,32.8c0,0-0.5-0.2-0.8-0.3c0-1.1,0-2.3,0-3.5c0.6,0.3,1.3,0.9,2,1.7c1.3,1.5,1.2,2,2.2,1.5
							c1.1-0.6,2-1.3,2-1.3s0.6-0.3-0.5-1.4c-1-1-3.7-2.9-5.8-3.7c1-0.1,1.9-0.1,2.5-0.1c2,0.2,4,0.6,4,0.6l3.5-4.1
							c0,0-3.5,0.1-5.5,0.1c-0.9,0-2.6,0-4.5,0c0-1.5,0-2.4,0-2.4s3.4-0.6,4.8-0.3c1.5,0.3,2,0.3,2,0.3s2.1-3.8,2.7-4.2l-5.8,0.3
							l1.6-1.9l-0.4-1.5l1-0.1l2.5-3.5c0,0-2.7,0.3-4.9,0.2c-2.2-0.1-5.4-0.8-7.4-0.3c-1.9,0.5-3.4,1.1-4.6,0.4
							c-1.3-0.7-2.1-1.6-2.1-1.6s-3.3,3.3-4.4,5c0,0-0.4,0.9,0.4,1.5c0.8,0.6,1,0.9,2.9,0.4c1.9-0.5,3.1-0.6,3.1-0.6l0.7,2.7l-1.5,0.4
							c0,0-1.3-0.2-2-0.6c-0.8-0.4-0.8-0.4-0.8-0.4l-2.4,4.2c0,0,1.5,0.1,2.3,0.8c0.8,0.7,1.5,1.4,2.7,0.6c0,0,1-0.7,2.1-1
							c1.2-0.3,3-0.5,3-0.5l-0.1,2.5c-0.9,0.1-1.8,0.2-2.6,0.4c-3.7,0.8-4.1,0.5-5.4,0.2c-1.4-0.3-2.1-0.3-2.1-0.3v2.1l-1.4,1.4
							c0,0-0.3,1.1-0.2,1.9c0.1,0.9,0.6,1.5,1.9,0.8c1.4-0.8,3.7-1.6,4.3-1.7c0.6-0.1,1.4-0.1,1.4-0.1s-2.1,3.7-3.3,4.4
							c-1.2,0.7-3.2,2.1-4.9,1.1c-1.7-1.1-4.1-2.1-4.1-2.1s1.1,2.6,1.5,3.1c0.5,0.5,1.1,1.5,1.1,1.5l0.2,1.3l1.8,1.2c0,0,1.5,1,2.3,0.7
							c0.9-0.3,3.3-2.6,4.5-4.1c1.2-1.5,2.5-3.1,2.5-3.1l-0.1-1.5l2-1.5l-0.5-1.5c0,0,0.4-0.1,0.9-0.2l-0.2,8.5l0.4,4.4l1.1,1
							c0,0,0.9-0.6,1.9-1.7c1.1-1.2,1.6-1.4,1.5-2.7c0-0.3,0-1.6-0.1-3.2c0.1,0,0.1,0.1,0.2,0.1c-0.1-0.1-0.1-0.2-0.1-0.2L144.9,32.8z
							 M143.5,15.3l-0.6,0.6h-3l-0.5-2.6c2.4-0.6,4.3-0.3,4.3-0.3L143.5,15.3z"></path>
						<path class="st0" d="M176.7,16.9c-1.3,0.3-2.8,0.3-2.8,0.3c-4.4-0.8-12,0.1-14.9,0.4c-0.1-2-0.6-3.9-1.4-5.9c0,0,3.4-0.2,5.8-1
							c2.4-0.8,4.6-2.4,4.6-2.4s2.3,1.4,3.1,1.3c0.8-0.1,1.3-1.3,1.6-1.7c0.3-0.5,0.9-1.5,0.9-1.5s-3.1-3-3.7-3.5
							c-0.6-0.5-1.5,0-2.3,0.3c-0.8,0.3-3.6,0.4-3.6,0.4l1.3,1.1c0,0-3.3,2-4.8,3s-2.4,0.9-3.4,0.5c-1-0.4-2.2-0.9-2.2-0.9l-2.1,1.9
							c0,0,1,1.5,0.4,1.9c-0.6,0.5-0.7,1,0.3,2.2c1,1.3,2.4,5.1,1.5,10.1c-1,4.9-2.2,8.4-3.5,9.1c-1.3,0.7-3.9,2-6.5,0.6
							c-0.3-0.2-0.5-0.3-0.7-0.4c0.3,0.6,1.5,2.5,3,3.5c1.8,1.2,4.3,2,6.3,0.6c0,0,3.9-2.2,4.7-8.4c0.4-2.7,0.7-5.2,0.8-7.6
							c1.2-0.1,3.3-0.1,5.4-0.1c0.1,2.3,0.6,10.6,0.1,14.2l-0.3,2.8l1.9,1.4c0,0,2.1,1.1,2.8-0.6c0.7-1.6,1-2.3,1-2.3s-0.4-3.7-0.8-6.7
							c-0.3-2.2-0.3-6.5-0.3-8.7c2.3,0.1,2.4,0.3,5.1,1.2c3,1.1,3.1,0,4.2-1.7c1.1-1.7,2.5-4.4,2.5-4.4S178,16.7,176.7,16.9z"></path>
					</g>
					<g>
						<path class="st0" d="M195.2,15.6c1.4-0.2,4.5,0.5,6.3,1c1.8,0.5,2.3-0.1,3.1-1c0.8-0.9,2-2.6,2-2.6s-0.2-1.8-0.3-2.9
							c-0.1-1.1,0.2-3.3,0.9-3.8c0.7-0.5,1.2-0.6,0.8-1.5c-0.4-1-3.3-3.2-3.3-3.2l-2.4,0.9c-2.3-0.1-9.3,0-11.7,0
							c-0.4-0.5-0.8-0.9-1.2-1.2l-1.4,1.6v1c0,0-1.3,2.3-2,3c-0.8,0.7,1.1,1.4,1.7,2.4c0.7,1.1,2.9,4.9,2.3,10.5
							c-0.6,5.5-1.7,10.7-2.6,11.6c-0.9,1-1.1,1.3-2.1,0.4c-1.1-0.9-2.4-2-2.4-2s-0.1,2.2,0.3,3.6c0.4,1.4,1.4,3,1.2,3.2
							c-0.2,0.2,0.5,0.9,0.3,2.1c-0.2,1.3,1,2.7,3.1,1.2c2.1-1.5,5.6-6.7,5.9-15.2c0.1-3.3,0.1-6.4,0.1-9
							C194.2,15.7,194.7,15.7,195.2,15.6z M193.3,7.1c-0.1-0.6-0.3-1.2-0.7-1.8c0.3-0.1,0.8-0.2,1.3-0.3c1.5-0.1,7.6,0.2,7.6,0.2V7
							C201.2,7,195.2,7.1,193.3,7.1C193.3,7.1,193.3,7.1,193.3,7.1z M193.7,13c0-1-0.1-2-0.1-2.8h8l-0.2,2.8H193.7z"></path>
						<path class="st0" d="M230.7,4c-1.1-1.5-2.4-2.3-2.4-2.3s-1.2,0.6-1.9,0.6c-0.8,0-1.8-0.3-3.8-0.5c-1.9-0.2-6.1-0.9-6.1-0.9
							s0,0-0.4,0.5c-0.4,0.5-3.5,1.6-3.5,1.6l-2,1.8l0.6,0.1l-0.2,0l-0.4-0.1c0,0,1.7,1.7,1.8,3c0.1,1.3,0.1,4.2,0.1,4.2l-1.7,1.9
							l3.2,3l2.1-1.5l7.2,0.1c0,0.1,0,0.2,0,0.2c-0.1,1-0.4,10.5-0.4,15.4c0,4.9,1.1,10.7,1.6,11.9c0.6,1.2,2,0.5,3.2-0.9
							c1.2-1.4,0.8-2.4,0.8-2.4s0,0,0.6-0.9c0.6-0.9,0.2-2.4-0.2-3.9c-0.4-1.5-0.8-4.9-1.1-8.2c-0.3-3.3,0.1-12.8,0.6-17.1
							c0.5-4.4,1.5-2.6,2.6-3.2C232,5.9,231.7,5.5,230.7,4z M223.5,12.9h-6.8l-0.1-2.5c0,0,4.4-0.2,7.1-0.1
							C223.7,11.2,223.6,12.1,223.5,12.9z M224,7.4c-2.1,0-6.4-0.1-7.7,0l0.1-1.9l7.8-0.1C224.2,5.5,224.1,6.3,224,7.4z"></path>
						<path class="st0" d="M219,18.3c-1.6,0.6-2.1-0.2-4.9-0.3c-2.8-0.1-6.9-0.6-9.7-0.2c-2.8,0.4-4.6,0.7-5.3,0.5
							c-0.7-0.2-1.9-1.7-1.9-1.7l-2.1,3.4l-0.4,1.2l0.4,1.5c0,0,0.8,1,1.9,0.4c1.2-0.6,2.9-1.3,2.9-1.3s0.7,4.7-1,7.1
							c-1.6,2.3-3.5,4.1-3.5,4.1l3.4,3c0,0,3.5-2.1,6-2.2c2.5-0.1,6.8,0,6.8,0s-0.3,3.1-0.4,4.5c-0.1,1.4,0.5,2,0.8,2.4
							c0.3,0.4,1.5,1.3,1.5,1.3s0.8-1,1.5-2.2c0.8-1.3,1.5-2.9,1.5-2.9s-0.4-1.9-0.6-4.5c-0.2-2.5,0.1-5.8,0.1-5.8l2.2-2.1l-4.4-2.4
							l-1.7,1.1l-7.6,0.2l0.1-1.2l0.7-1.1c0,0,5.8-0.4,7.8,0.3c2,0.7,5.4,1.1,5.8,1.1c0.4,0,0.4,0,0.4,0l3.3-4.3
							C222.6,17.9,220.6,17.7,219,18.3z M211.8,30.4c0,0-0.3-0.1-1.2-0.1c-0.9,0-7.5,0-7.5,0l0.5-1.7c0,0,1.4,0,2.4,0
							c1.1,0,5.8,0.1,5.8,0.1L211.8,30.4z M211.8,25.1l0.1,1.3H204l0.3-1.5L211.8,25.1z"></path>
					</g>
				</g>
			</g>
			</svg>